<svg width="82" height="83" fill="none" xmlns="http://www.w3.org/2000/svg">
    <defs>
        <linearGradient id="b" x1=".065" y1="82.095" x2="83.874" y2="2.057"
            gradientUnits="userSpaceOnUse">
            <stop stop-color="#149AC3" />
            <stop offset="1" stop-color="#41D2FF" />
        </linearGradient>
        <linearGradient id="d" x1="40.857" y1="72.865" x2="101.421" y2="13.642"
            gradientUnits="userSpaceOnUse">
            <stop stop-color="#fff" />
            <stop offset="1" stop-color="#fff" stop-opacity=".2" />
        </linearGradient>
        <linearGradient id="e" x1="40.857" y1="72.865" x2="101.421" y2="13.642"
            gradientUnits="userSpaceOnUse">
            <stop stop-color="#fff" />
            <stop offset="1" stop-color="#fff" stop-opacity=".2" />
        </linearGradient>
        <linearGradient id="f" x1="40.857" y1="72.865" x2="101.421" y2="13.642"
            gradientUnits="userSpaceOnUse">
            <stop stop-color="#fff" />
            <stop offset="1" stop-color="#fff" stop-opacity=".2" />
        </linearGradient>
        <linearGradient id="g" x1="40.857" y1="72.865" x2="101.421" y2="13.642"
            gradientUnits="userSpaceOnUse">
            <stop stop-color="#fff" />
            <stop offset="1" stop-color="#fff" stop-opacity=".2" />
        </linearGradient>
        <linearGradient id="h" x1="40.857" y1="72.865" x2="101.421" y2="13.642"
            gradientUnits="userSpaceOnUse">
            <stop stop-color="#fff" />
            <stop offset="1" stop-color="#fff" stop-opacity=".2" />
        </linearGradient>
        <filter id="a" x="-23.935" y="-23.974" width="129.869" height="130.069"
            filterUnits="userSpaceOnUse" color-interpolation-filters="sRGB">
            <feFlood flood-opacity="0" result="BackgroundImageFix" />
            <feGaussianBlur in="BackgroundImage" stdDeviation="12" />
            <feComposite in2="SourceAlpha" operator="in" result="effect1_backgroundBlur_26_448" />
            <feBlend in="SourceGraphic" in2="effect1_backgroundBlur_26_448" result="shape" />
        </filter>
        <filter id="c" x="15.6" y="16.631" width="59.777" height="59.884"
            filterUnits="userSpaceOnUse" color-interpolation-filters="sRGB">
            <feFlood flood-opacity="0" result="BackgroundImageFix" />
            <feColorMatrix in="SourceAlpha" values="0 0 0 0 0 0 0 0 0 0 0 0 0 0 0 0 0 0 127 0"
                result="hardAlpha" />
            <feOffset dx="5" dy="5" />
            <feGaussianBlur stdDeviation="4" />
            <feColorMatrix
                values="0 0 0 0 0.176471 0 0 0 0 0.556863 0 0 0 0 0.678431 0 0 0 0.5 0" />
            <feBlend in2="BackgroundImageFix" result="effect1_dropShadow_26_448" />
            <feBlend in="SourceGraphic" in2="effect1_dropShadow_26_448" result="shape" />
        </filter>
    </defs>
    <g filter="url(#a)">
        <rect x=".065" y=".026" width="81.869" height="82.069" rx="40.935" fill="url(#b)" />
    </g>
    <g filter="url(#c)">
        <path
            d="M47.223 19.631c-.93 0-1.684.756-1.684 1.688 0 .932.754 1.688 1.684 1.688h2.245c5.27 0 9.541 4.282 9.541 9.564v2.25c0 .933.754 1.689 1.684 1.689.93 0 1.684-.756 1.684-1.688v-2.25c0-7.147-5.78-12.94-12.909-12.94h-2.245Z"
            fill="url(#d)" />
        <path
            d="M31.508 19.631c-7.129 0-12.908 5.794-12.908 12.94v2.25c0 .933.753 1.689 1.683 1.689s1.684-.756 1.684-1.688v-2.25c0-5.283 4.272-9.565 9.541-9.565h2.245c.93 0 1.684-.756 1.684-1.688 0-.932-.754-1.688-1.684-1.688h-2.245Z"
            fill="url(#e)" />
        <path
            d="M21.967 48.325c0-.933-.754-1.688-1.684-1.688-.93 0-1.683.755-1.683 1.688v2.25c0 7.147 5.78 12.94 12.908 12.94h2.245c.93 0 1.684-.755 1.684-1.688 0-.932-.754-1.687-1.684-1.687h-2.245c-5.27 0-9.54-4.282-9.54-9.565v-2.25Z"
            fill="url(#f)" />
        <path
            d="M62.377 48.325c0-.933-.754-1.688-1.684-1.688-.93 0-1.683.755-1.683 1.688v2.25c0 5.282-4.272 9.565-9.542 9.565h-2.245c-.93 0-1.684.755-1.684 1.688 0 .932.754 1.687 1.684 1.687h2.245c7.13 0 12.909-5.793 12.909-12.94v-2.25Z"
            fill="url(#g)" />
        <path
            d="M27.468 39.947a1.688 1.688 0 0 0-.899 3.253l.012.003.03.008.11.03.413.11a85.942 85.942 0 0 0 6.32 1.4c2.277.412 4.838.76 7.034.76 2.197 0 4.758-.348 7.034-.759a85.942 85.942 0 0 0 6.734-1.51l.11-.03.03-.009.01-.003a1.69 1.69 0 0 0 1.175-2.077 1.683 1.683 0 0 0-2.072-1.176l-.007.001-.023.007-.1.027-.387.103a82.586 82.586 0 0 1-6.067 1.345c-2.209.399-4.54.706-6.437.706-1.897 0-4.227-.307-6.436-.706a82.586 82.586 0 0 1-6.455-1.448l-.099-.027-.024-.007-.006-.001Z"
            fill="url(#h)" />
    </g>
</svg>