<svg width="35" height="35" fill="none" xmlns="http://www.w3.org/2000/svg">
    <defs>
        <linearGradient id="c" x1="3.281" y1="31.719" x2="32.325" y2="3.914"
            gradientUnits="userSpaceOnUse">
            <stop stop-color="#149AC3" />
            <stop offset="1" stop-color="#41D2FF" />
        </linearGradient>
        <linearGradient id="d" x1="3.281" y1="3.281" x2="31.733" y2="31.704"
            gradientUnits="userSpaceOnUse">
            <stop stop-color="#fff" stop-opacity=".25" />
            <stop offset="1" stop-color="#fff" stop-opacity="0" />
        </linearGradient>
        <linearGradient id="f" x1="17.617" y1="29.458" x2="40.262" y2="11.121"
            gradientUnits="userSpaceOnUse">
            <stop stop-color="#fff" />
            <stop offset="1" stop-color="#fff" stop-opacity=".2" />
        </linearGradient>
        <filter id="b" x="-21.219" y="-21.219" width="77.438" height="77.438"
            filterUnits="userSpaceOnUse" color-interpolation-filters="sRGB">
            <feFlood flood-opacity="0" result="BackgroundImageFix" />
            <feGaussianBlur in="BackgroundImage" stdDeviation="12" />
            <feComposite in2="SourceAlpha" operator="in" result="effect1_backgroundBlur_26_601" />
            <feBlend in="SourceGraphic" in2="effect1_backgroundBlur_26_601" result="shape" />
        </filter>
        <filter id="e" x="7.573" y="6.115" width="29.854" height="32.771"
            filterUnits="userSpaceOnUse" color-interpolation-filters="sRGB">
            <feFlood flood-opacity="0" result="BackgroundImageFix" />
            <feColorMatrix in="SourceAlpha" values="0 0 0 0 0 0 0 0 0 0 0 0 0 0 0 0 0 0 127 0"
                result="hardAlpha" />
            <feOffset dx="5" dy="5" />
            <feGaussianBlur stdDeviation="4" />
            <feColorMatrix
                values="0 0 0 0 0.708333 0 0 0 0 0.708333 0 0 0 0 0.708333 0 0 0 0.5 0" />
            <feBlend in2="BackgroundImageFix" result="effect1_dropShadow_26_601" />
            <feBlend in="SourceGraphic" in2="effect1_dropShadow_26_601" result="shape" />
        </filter>
        <clipPath id="a">
            <path fill="#fff" d="M0 0h35v35H0z" />
        </clipPath>
    </defs>
    <g clip-path="url(#a)">
        <g filter="url(#b)" clip-rule="evenodd">
            <path fill-rule="evenodd"
                d="M17.566 3.281c2.678 0 4.778 0 6.443.18 1.7.185 3.077.567 4.253 1.422a8.387 8.387 0 0 1 1.855 1.855c.855 1.176 1.237 2.553 1.421 4.253.18 1.665.18 3.765.18 6.443v.132c0 2.678 0 4.778-.18 6.443-.184 1.7-.566 3.077-1.42 4.253a8.388 8.388 0 0 1-1.856 1.855c-1.176.855-2.553 1.237-4.253 1.421-1.665.18-3.765.18-6.443.18h-.132c-2.678 0-4.778 0-6.443-.18-1.7-.184-3.077-.566-4.253-1.42a8.387 8.387 0 0 1-1.855-1.856c-.855-1.176-1.237-2.553-1.421-4.253-.18-1.665-.18-3.765-.18-6.443v-.132c0-2.678 0-4.778.18-6.443.184-1.7.566-3.077 1.42-4.253a8.386 8.386 0 0 1 1.856-1.855c1.176-.855 2.553-1.237 4.253-1.421 1.665-.18 3.765-.18 6.443-.18h.132Z"
                fill="url(#c)" />
            <path
                d="M17.566 3.281c2.678 0 4.778 0 6.443.18 1.7.185 3.077.567 4.253 1.422a8.387 8.387 0 0 1 1.855 1.855c.855 1.176 1.237 2.553 1.421 4.253.18 1.665.18 3.765.18 6.443v.132c0 2.678 0 4.778-.18 6.443-.184 1.7-.566 3.077-1.42 4.253a8.388 8.388 0 0 1-1.856 1.855c-1.176.855-2.553 1.237-4.253 1.421-1.665.18-3.765.18-6.443.18h-.132c-2.678 0-4.778 0-6.443-.18-1.7-.184-3.077-.566-4.253-1.42a8.387 8.387 0 0 1-1.855-1.856c-.855-1.176-1.237-2.553-1.421-4.253-.18-1.665-.18-3.765-.18-6.443v-.132c0-2.678 0-4.778.18-6.443.184-1.7.566-3.077 1.42-4.253a8.386 8.386 0 0 1 1.856-1.855c1.176-.855 2.553-1.237 4.253-1.421 1.665-.18 3.765-.18 6.443-.18h.132Z"
                stroke="url(#d)" stroke-linecap="round" />
        </g>
        <g filter="url(#e)">
            <path fill-rule="evenodd" clip-rule="evenodd"
                d="M18.594 10.208a1.094 1.094 0 0 0-2.188 0v14.584a1.094 1.094 0 0 0 2.188 0V10.208Zm5.833 5.834a1.094 1.094 0 1 0-2.187 0v8.75a1.094 1.094 0 0 0 2.187 0v-8.75ZM12.76 18.958a1.094 1.094 0 0 0-2.187 0v5.834a1.094 1.094 0 0 0 2.187 0v-5.834Z"
                fill="url(#f)" />
        </g>
    </g>
</svg>