<svg width="36" height="36" fill="none" xmlns="http://www.w3.org/2000/svg">
    <defs>
        <linearGradient id="c" x1="2.76" y1="31.239" x2="28.509" y2=".953"
            gradientUnits="userSpaceOnUse">
            <stop stop-color="#DADADA" />
            <stop offset="1" stop-color="#E7E7E7" />
        </linearGradient>
        <linearGradient id="d" x1="2.76" y1="31.239" x2="28.509" y2=".953"
            gradientUnits="userSpaceOnUse">
            <stop stop-color="#DADADA" />
            <stop offset="1" stop-color="#E7E7E7" />
        </linearGradient>
        <linearGradient id="e" x1="2.76" y1="5.718" x2="27.767" y2="36.41"
            gradientUnits="userSpaceOnUse">
            <stop stop-color="#fff" stop-opacity=".25" />
            <stop offset="1" stop-color="#fff" stop-opacity="0" />
        </linearGradient>
        <linearGradient id="g" x1="16.378" y1="27.33" x2="17.24" y2="21.416"
            gradientUnits="userSpaceOnUse">
            <stop stop-color="#fff" />
            <stop offset="1" stop-color="#fff" stop-opacity=".2" />
        </linearGradient>
        <linearGradient id="h" x1="16.378" y1="27.33" x2="17.24" y2="21.416"
            gradientUnits="userSpaceOnUse">
            <stop stop-color="#fff" />
            <stop offset="1" stop-color="#fff" stop-opacity=".2" />
        </linearGradient>
        <filter id="b" x="-22.24" y="-19.282" width="81.354" height="75.521"
            filterUnits="userSpaceOnUse" color-interpolation-filters="sRGB">
            <feFlood flood-opacity="0" result="BackgroundImageFix" />
            <feGaussianBlur in="BackgroundImage" stdDeviation="12" />
            <feComposite in2="SourceAlpha" operator="in" result="effect1_backgroundBlur_678_555" />
            <feBlend in="SourceGraphic" in2="effect1_backgroundBlur_678_555" result="shape" />
        </filter>
        <filter id="f" x="5.593" y="21.676" width="31.313" height="18.188"
            filterUnits="userSpaceOnUse" color-interpolation-filters="sRGB">
            <feFlood flood-opacity="0" result="BackgroundImageFix" />
            <feColorMatrix in="SourceAlpha" values="0 0 0 0 0 0 0 0 0 0 0 0 0 0 0 0 0 0 127 0"
                result="hardAlpha" />
            <feOffset dx="5" dy="5" />
            <feGaussianBlur stdDeviation="4" />
            <feColorMatrix
                values="0 0 0 0 0.708333 0 0 0 0 0.708333 0 0 0 0 0.708333 0 0 0 0.5 0" />
            <feBlend in2="BackgroundImageFix" result="effect1_dropShadow_678_555" />
            <feBlend in="SourceGraphic" in2="effect1_dropShadow_678_555" result="shape" />
        </filter>
        <clipPath id="a">
            <path fill="#fff" transform="translate(.937 .979)" d="M0 0h35v35H0z" />
        </clipPath>
    </defs>
    <g clip-path="url(#a)">
        <g filter="url(#b)">
            <path
                d="M21.402 5.718c2 0 3.57 0 4.83.103 1.283.105 2.344.322 3.303.811a8.385 8.385 0 0 1 3.665 3.665c.586 1.15.789 2.468.865 4.171H2.809c.076-1.703.278-3.02.865-4.171a8.386 8.386 0 0 1 3.664-3.665c.96-.49 2.02-.706 3.304-.811 1.26-.103 2.829-.103 4.83-.103h5.93Z"
                fill="url(#c)" />
            <path fill-rule="evenodd" clip-rule="evenodd"
                d="M2.763 16.655c-.003.56-.003 1.164-.003 1.815v.057c0 2 0 3.57.103 4.83.105 1.283.322 2.344.81 3.303a8.385 8.385 0 0 0 3.665 3.665c.96.489 2.02.706 3.304.81 1.26.104 2.829.104 4.829.104h5.931c2 0 3.57 0 4.83-.103 1.283-.105 2.344-.322 3.303-.811A8.384 8.384 0 0 0 33.2 26.66c.489-.96.706-2.02.811-3.303.103-1.26.103-2.829.103-4.83v-.057c0-.65 0-1.254-.003-1.814H2.763Z"
                fill="url(#d)" />
            <path
                d="M34.065 14.968h.523l-.023-.522c-.077-1.723-.283-3.128-.92-4.377a8.886 8.886 0 0 0-3.883-3.883c-1.041-.53-2.175-.756-3.49-.863-1.28-.105-2.865-.105-4.848-.105H15.45c-1.983 0-3.568 0-4.849.105-1.314.107-2.448.333-3.49.863a8.886 8.886 0 0 0-3.883 3.883c-.636 1.249-.842 2.654-.919 4.377l-.023.522h31.779ZM2.763 16.156h-.497l-.003.497c-.003.561-.003 1.166-.003 1.816v.08c0 1.982 0 3.567.104 4.848.108 1.315.333 2.448.864 3.49a8.886 8.886 0 0 0 3.883 3.883c1.042.531 2.176.757 3.49.864 1.281.105 2.866.105 4.848.105H21.424c1.983 0 3.568 0 4.849-.105 1.314-.107 2.448-.333 3.49-.864a8.886 8.886 0 0 0 3.882-3.883c.531-1.042.757-2.175.864-3.49.105-1.28.105-2.865.105-4.848v-.079c0-.65 0-1.256-.003-1.817l-.003-.497H2.763Z"
                stroke="url(#e)" stroke-linecap="round" />
        </g>
        <g filter="url(#f)">
            <path
                d="M8.593 25.77c0-.604.49-1.094 1.094-1.094h2.917a1.094 1.094 0 1 1 0 2.188H9.687c-.604 0-1.094-.49-1.094-1.094Z"
                fill="url(#g)" />
            <path
                d="M15.885 25.77c0-.604.49-1.094 1.094-1.094h5.833a1.094 1.094 0 1 1 0 2.188h-5.834c-.604 0-1.093-.49-1.093-1.094Z"
                fill="url(#h)" />
        </g>
    </g>
</svg>