<svg width="36" height="36" fill="none" xmlns="http://www.w3.org/2000/svg">
    <defs>
        <linearGradient id="c" x1="2.76" y1="31.239" x2="28.509" y2=".953"
            gradientUnits="userSpaceOnUse">
            <stop stop-color="#149AC3" />
            <stop offset="1" stop-color="#41D2FF" />
        </linearGradient>
        <linearGradient id="d" x1="2.76" y1="31.239" x2="28.509" y2=".953"
            gradientUnits="userSpaceOnUse">
            <stop stop-color="#149AC3" />
            <stop offset="1" stop-color="#41D2FF" />
        </linearGradient>
        <linearGradient id="f" x1="16.378" y1="27.33" x2="17.24" y2="21.416"
            gradientUnits="userSpaceOnUse">
            <stop stop-color="#fff" />
            <stop offset="1" stop-color="#fff" stop-opacity=".2" />
        </linearGradient>
        <linearGradient id="g" x1="16.378" y1="27.33" x2="17.24" y2="21.416"
            gradientUnits="userSpaceOnUse">
            <stop stop-color="#fff" />
            <stop offset="1" stop-color="#fff" stop-opacity=".2" />
        </linearGradient>
        <filter id="b" x="-21.24" y="-18.282" width="79.354" height="73.521"
            filterUnits="userSpaceOnUse" color-interpolation-filters="sRGB">
            <feFlood flood-opacity="0" result="BackgroundImageFix" />
            <feGaussianBlur in="BackgroundImage" stdDeviation="12" />
            <feComposite in2="SourceAlpha" operator="in" result="effect1_backgroundBlur_678_675" />
            <feBlend in="SourceGraphic" in2="effect1_backgroundBlur_678_675" result="shape" />
        </filter>
        <filter id="e" x="5.593" y="21.677" width="31.313" height="18.188"
            filterUnits="userSpaceOnUse" color-interpolation-filters="sRGB">
            <feFlood flood-opacity="0" result="BackgroundImageFix" />
            <feColorMatrix in="SourceAlpha" values="0 0 0 0 0 0 0 0 0 0 0 0 0 0 0 0 0 0 127 0"
                result="hardAlpha" />
            <feOffset dx="5" dy="5" />
            <feGaussianBlur stdDeviation="4" />
            <feColorMatrix
                values="0 0 0 0 0.708333 0 0 0 0 0.708333 0 0 0 0 0.708333 0 0 0 0.5 0" />
            <feBlend in2="BackgroundImageFix" result="effect1_dropShadow_678_675" />
            <feBlend in="SourceGraphic" in2="effect1_dropShadow_678_675" result="shape" />
        </filter>
        <clipPath id="a">
            <path fill="#fff" transform="translate(.937 .979)" d="M0 0h35v35H0z" />
        </clipPath>
    </defs>
    <g clip-path="url(#a)">
        <g filter="url(#b)">
            <path
                d="M21.402 5.718c2 0 3.57 0 4.83.103 1.283.105 2.344.322 3.303.811a8.385 8.385 0 0 1 3.665 3.665c.586 1.15.789 2.468.865 4.171H2.809c.076-1.703.278-3.02.865-4.171a8.385 8.385 0 0 1 3.664-3.665c.96-.489 2.02-.706 3.304-.81 1.26-.104 2.829-.104 4.83-.104h5.93Z"
                fill="url(#c)" />
            <path fill-rule="evenodd" clip-rule="evenodd"
                d="M2.763 16.656c-.003.56-.003 1.164-.003 1.814v.058c0 2 0 3.568.103 4.829.105 1.283.322 2.344.81 3.304a8.385 8.385 0 0 0 3.665 3.664c.96.49 2.02.706 3.304.811 1.26.103 2.829.103 4.829.103h5.931c2 0 3.57 0 4.83-.103 1.283-.105 2.344-.322 3.303-.81A8.385 8.385 0 0 0 33.2 26.66c.489-.96.706-2.02.811-3.304.103-1.26.103-2.829.103-4.83v-.057c0-.65 0-1.254-.003-1.814H2.763Z"
                fill="url(#d)" />
        </g>
        <g filter="url(#e)">
            <path
                d="M8.593 25.77c0-.604.49-1.093 1.094-1.093h2.917a1.094 1.094 0 1 1 0 2.187H9.687c-.604 0-1.094-.49-1.094-1.094Z"
                fill="url(#f)" />
            <path
                d="M15.885 25.77c0-.604.49-1.093 1.094-1.093h5.833a1.094 1.094 0 1 1 0 2.187h-5.834c-.604 0-1.093-.49-1.093-1.094Z"
                fill="url(#g)" />
        </g>
    </g>
</svg>